0
SECTION
2
HEADER
9
$INSUNITS
70
4
9
$ACADVER
1
AC1014
9
$HANDSEED
5
FFFF
0
ENDSEC
0
SECTION
2
TABLES
0
TABLE
2
VPORT
5
8
100
AcDbSymbolTable
0
ENDTAB
0
TABLE
2
LTYPE
5
5
100
AcDbSymbolTable
0
LTYPE
5
14
100
AcDbSymbolTableRecord
100
AcDbLinetypeTableRecord
2
BYBLOCK
70
0
0
LTYPE
5
15
100
AcDbSymbolTableRecord
100
AcDbLinetypeTableRecord
2
BYLAYER
70
0
0
ENDTAB
0
TABLE
2
LAYER
5
2
100
AcDbSymbolTable
70
2
0
LAYER
5
50
100
AcDbSymbolTableRecord
100
AcDbLayerTableRecord
2
0
70
0
6
CONTINUOUS
0
ENDTAB
0
TABLE
2
STYLE
5
3
100
AcDbSymbolTable
70
1
0
STYLE
5
11
100
AcDbSymbolTableRecord
100
AcDbTextStyleTableRecord
2
STANDARD
70
0
0
ENDTAB
0
TABLE
2
VIEW
5
6
100
AcDbSymbolTable
70
0
0
ENDTAB
0
TABLE
2
UCS
5
7
100
AcDbSymbolTable
70
0
0
ENDTAB
0
TABLE
2
APPID
5
9
100
AcDbSymbolTable
70
2
0
APPID
5
12
100
AcDbSymbolTableRecord
100
AcDbRegAppTableRecord
2
ACAD
70
0
0
ENDTAB
0
TABLE
2
DIMSTYLE
5
A
100
AcDbSymbolTable
70
1
0
ENDTAB
0
TABLE
2
BLOCK_RECORD
5
1
100
AcDbSymbolTable
70
1
0
BLOCK_RECORD
5
1F
100
AcDbSymbolTableRecord
100
AcDbBlockTableRecord
2
*MODEL_SPACE
0
BLOCK_RECORD
5
1B
100
AcDbSymbolTableRecord
100
AcDbBlockTableRecord
2
*PAPER_SPACE
0
ENDTAB
0
ENDSEC
0
SECTION
2
BLOCKS
0
BLOCK
5
20
100
AcDbEntity
100
AcDbBlockBegin
2
*MODEL_SPACE
0
ENDBLK
5
21
100
AcDbEntity
100
AcDbBlockEnd
0
BLOCK
5
1C
100
AcDbEntity
100
AcDbBlockBegin
2
*PAPER_SPACE
0
ENDBLK
5
1D
100
AcDbEntity
100
AcDbBlockEnd
0
ENDSEC
0
SECTION
2
ENTITIES
0
LWPOLYLINE
5
100
100
AcDbEntity
8
0
100
AcDbPolyline
90
105
70
1
43
0.0
10
-154.12006600000001
20
50.817011000000001
10
-153.99947300000002
20
50.767066999999997
10
-153.87006199999999
20
50.750023000000006
10
-142.87006200000002
20
50.750023000000006
10
-142.74066199999999
20
50.767068000000002
10
-142.62008299999999
20
50.817024000000011
10
-142.51654099999999
20
50.896484000000008
10
-142.437093
20
51.000036000000009
10
-142.38715300000001
20
51.120621
10
-142.37006199999999
20
51.250022999999999
10
-142.37006199999999
20
53.984526000000002
10
-142.34970200000001
20
54.26915000000001
10
-142.28904199999999
20
54.547978999999998
10
-142.18931900000001
20
54.815337
10
-142.05256200000002
20
55.065781999999999
10
-141.88155399999999
20
55.294215000000008
10
-141.679778
20
55.495986000000002
10
-141.45134100000001
20
55.666988000000011
10
-141.20089300000001
20
55.803739000000007
10
-140.93353200000001
20
55.903455999999998
10
-140.65470099999999
20
55.964109000000008
10
-140.37007700000001
20
55.98452600000001
10
-21.373896999999999
20
55.985460000000003
10
-21.089267
20
56.00581900000001
10
-20.810431999999999
20
56.066478000000004
10
-20.543068000000005
20
56.166201999999998
10
-20.292617
20
56.302960000000006
10
-20.064177999999998
20
56.473970000000008
10
-19.862402000000003
20
56.67574900000001
10
-19.691395
20
56.90419
10
-19.554639999999999
20
57.154643000000007
10
-19.454920000000001
20
57.422009000000003
10
-19.394265000000001
20
57.700845000000001
10
-19.373913000000002
20
57.985475000000008
10
-19.374495
20
132.185475
10
-19.394849000000001
20
132.47010900000001
10
-19.455504000000001
20
132.74894900000001
10
-19.555225
20
133.01631800000001
10
-19.691982000000003
20
133.266774
10
-19.862991000000001
20
133.49521799999999
10
-20.064771
20
133.69699900000001
10
-20.293214000000003
20
133.86801
10
-20.543669000000001
20
134.00476900000001
10
-20.811038000000003
20
134.10449199999999
10
-21.089877000000001
20
134.16514900000004
10
-21.374510999999998
20
134.18546000000001
10
-39.289205000000003
20
134.18531899999999
10
-39.424202000000001
20
134.18988100000001
10
-39.558584000000003
20
134.203541
10
-73.644917000000007
20
138.836555
10
-73.683110999999997
20
138.84212200000002
10
-73.721190000000007
20
138.84842499999999
10
-130.10724500000003
20
148.74184299999999
10
-130.27941800000002
20
148.76440099999999
10
-130.452898
20
148.77193500000001
10
-148.369584
20
148.771795
10
-166.28635299999999
20
148.77165400000001
10
-166.45983200000001
20
148.76411100000001
10
-166.63200499999999
20
148.741556
10
-223.01790400000002
20
138.84725400000002
10
-223.05598400000002
20
138.84095099999999
10
-223.09417800000003
20
138.83538200000001
10
-257.18043799999998
20
134.20183399999999
10
-257.314819
20
134.18817300000001
10
-257.44981600000006
20
134.18360699999999
10
-275.36451099999999
20
134.18346700000001
10
-275.64913899999999
20
134.16310799999999
10
-275.92797300000001
20
134.10244900000004
10
-276.195336
20
134.002725
10
-276.445785
20
133.86596599999999
10
-276.67422099999999
20
133.69495599999999
10
-276.87599499999999
20
133.49317600000001
10
-277.04699800000003
20
133.264734
10
-277.18374999999997
20
133.01428100000004
10
-277.28346599999998
20
132.746915
10
-277.34411699999998
20
132.46807999999999
10
-277.36449499999998
20
132.18345099999999
10
-277.36391300000003
20
57.983451000000002
10
-277.343549
20
57.698824000000002
10
-277.28288700000002
20
57.419992000000008
10
-277.18316099999998
20
57.152631000000007
10
-277.046401
20
56.902183999999998
10
-276.87539099999998
20
56.673749000000001
10
-276.67361200000005
20
56.471975000000008
10
-276.44517200000001
20
56.300971000000004
10
-276.19472100000002
20
56.164218000000005
10
-275.92735800000003
20
56.064498
10
-275.64852400000001
20
56.00384300000001
10
-275.36389700000001
20
55.983467000000005
10
-156.37007700000001
20
55.984397000000001
10
-156.08545000000001
20
55.964036999999998
10
-155.80661700000002
20
55.903378000000004
10
-155.539255
20
55.803654000000009
10
-155.28880699999999
20
55.666896000000001
10
-155.06037000000001
20
55.495888000000008
10
-154.85859500000001
20
55.294110000000003
10
-154.68759
20
55.065671000000009
10
-154.55083500000001
20
54.815221000000001
10
-154.45111499999999
20
54.547857999999998
10
-154.39045899999999
20
54.269024000000002
10
-154.37006199999999
20
53.984397000000008
10
-154.37006199999999
20
51.250022999999999
10
-154.35302999999999
20
51.120613000000006
10
-154.30308099999999
20
51.000021000000004
10
-154.22362100000001
20
50.896468000000006
0
LWPOLYLINE
5
101
100
AcDbEntity
8
0
100
AcDbPolyline
90
4
70
1
43
0.0
10
-192.40631000000002
20
130.337208
10
-197.62579099999999
20
129.41687200000001
10
-198.58085600000004
20
134.833315
10
-193.36137500000004
20
135.75364999999999
0
LWPOLYLINE
5
102
100
AcDbEntity
8
0
100
AcDbPolyline
90
4
70
1
43
0.0
10
-168.77092400000004
20
134.50476399999999
10
-173.99040500000001
20
133.584429
10
-174.94547
20
139.00087100000002
10
-169.72598900000003
20
139.92120700000001
0
LWPOLYLINE
5
103
100
AcDbEntity
8
0
100
AcDbPolyline
90
4
70
1
43
0.0
10
-192.039276
20
124.51245100000001
10
-195.97850700000004
20
123.817859
10
-196.58627600000003
20
127.26468600000001
10
-192.64704499999999
20
127.95927900000001
0
LWPOLYLINE
5
104
100
AcDbEntity
8
0
100
AcDbPolyline
90
4
70
1
43
0.0
10
-168.40388999999999
20
128.68000799999999
10
-172.343121
20
127.985415
10
-172.95088899999999
20
131.432242
10
-169.01165800000001
20
132.126835
0
LWPOLYLINE
5
105
100
AcDbEntity
8
0
100
AcDbPolyline
90
4
70
1
43
0.0
10
-121.88543500000002
20
139.00087100000002
10
-122.84050000000001
20
133.584429
10
-128.05998099999999
20
134.50476399999999
10
-127.104916
20
139.92120700000001
0
LWPOLYLINE
5
106
100
AcDbEntity
8
0
100
AcDbPolyline
90
4
70
1
43
0.0
10
-98.250049000000018
20
134.833315
10
-99.205114000000009
20
129.41687200000001
10
-104.424595
20
130.337208
10
-103.46953000000001
20
135.75364999999999
0
LWPOLYLINE
5
107
100
AcDbEntity
8
0
100
AcDbPolyline
90
4
70
1
43
0.0
10
-123.88001600000001
20
131.432242
10
-124.48778400000002
20
127.985415
10
-128.42701500000001
20
128.68000799999999
10
-127.81924700000002
20
132.126835
0
LWPOLYLINE
5
108
100
AcDbEntity
8
0
100
AcDbPolyline
90
4
70
1
43
0.0
10
-100.24462900000002
20
127.26468600000001
10
-100.85239799999999
20
123.817859
10
-104.791629
20
124.51245100000001
10
-104.18386
20
127.95927900000001
0
LWPOLYLINE
5
109
100
AcDbEntity
8
0
100
AcDbPolyline
90
20
70
1
43
0.0
10
-153.02814499999999
20
57.350525000000005
10
-152.98831799999999
20
57.453330000000008
10
-152.91404299999999
20
57.534805000000006
10
-152.81535200000002
20
57.583948000000007
10
-152.70557199999999
20
57.594120000000004
10
-152.59953100000001
20
57.563949000000001
10
-152.51155
20
57.497509000000008
10
-152.45351099999999
20
57.403772000000004
10
-152.43325300000004
20
57.295400000000001
10
-152.43325300000004
20
56.195400000000006
10
-152.43836099999999
20
56.140275000000003
10
-152.47818799999999
20
56.037469999999999
10
-152.55246299999999
20
55.955995000000001
10
-152.65115399999999
20
55.906852000000001
10
-152.76093400000002
20
55.896680000000003
10
-152.866975
20
55.926851000000006
10
-152.95495600000004
20
55.993290999999999
10
-153.01299499999999
20
56.087027999999997
10
-153.033253
20
56.195400000000006
10
-153.033253
20
57.295400000000001
0
LWPOLYLINE
5
110
100
AcDbEntity
8
0
100
AcDbPolyline
90
20
70
1
43
0.0
10
-153.02814499999999
20
52.920525000000005
10
-152.98831799999999
20
53.023330000000009
10
-152.91404299999999
20
53.104805000000006
10
-152.81535200000002
20
53.153948
10
-152.70557199999999
20
53.164119999999997
10
-152.59953100000001
20
53.133949000000001
10
-152.51155
20
53.067509000000008
10
-152.45351099999999
20
52.973771999999997
10
-152.43325300000004
20
52.865400000000008
10
-152.43325300000004
20
52.2654
10
-152.43836099999999
20
52.21027500000001
10
-152.47818799999999
20
52.107470000000006
10
-152.55246299999999
20
52.025995000000009
10
-152.65115399999999
20
51.976852000000008
10
-152.76093400000002
20
51.966679999999997
10
-152.866975
20
51.996850999999999
10
-152.95495600000004
20
52.063291000000007
10
-153.01299499999999
20
52.157027999999997
10
-153.033253
20
52.2654
10
-153.033253
20
52.865400000000008
0
LWPOLYLINE
5
111
100
AcDbEntity
8
0
100
AcDbPolyline
90
20
70
1
43
0.0
10
-144.38814500000001
20
57.350525000000005
10
-144.34831800000001
20
57.453330000000008
10
-144.27404300000001
20
57.534805000000006
10
-144.175352
20
57.583948000000007
10
-144.06557200000003
20
57.594120000000004
10
-143.959531
20
57.563949000000001
10
-143.87155000000001
20
57.497509000000008
10
-143.81351100000001
20
57.403772000000004
10
-143.79325299999999
20
57.295400000000001
10
-143.79325299999999
20
56.195400000000006
10
-143.798361
20
56.140275000000003
10
-143.838188
20
56.037469999999999
10
-143.912463
20
55.955995000000001
10
-144.01115400000003
20
55.906852000000001
10
-144.12093400000001
20
55.896680000000003
10
-144.22697500000001
20
55.926851000000006
10
-144.314956
20
55.993290999999999
10
-144.372995
20
56.087027999999997
10
-144.39325300000002
20
56.195400000000006
10
-144.39325300000002
20
57.295400000000001
0
LWPOLYLINE
5
112
100
AcDbEntity
8
0
100
AcDbPolyline
90
20
70
1
43
0.0
10
-144.38814500000001
20
52.920525000000005
10
-144.34831800000001
20
53.023330000000009
10
-144.27404300000001
20
53.104805000000006
10
-144.175352
20
53.153948
10
-144.06557200000003
20
53.164119999999997
10
-143.959531
20
53.133949000000001
10
-143.87155000000001
20
53.067509000000008
10
-143.81351100000001
20
52.973771999999997
10
-143.79325299999999
20
52.865400000000008
10
-143.79325299999999
20
52.2654
10
-143.798361
20
52.21027500000001
10
-143.838188
20
52.107470000000006
10
-143.912463
20
52.025995000000009
10
-144.01115400000003
20
51.976852000000008
10
-144.12093400000001
20
51.966679999999997
10
-144.22697500000001
20
51.996850999999999
10
-144.314956
20
52.063291000000007
10
-144.372995
20
52.157027999999997
10
-144.39325300000002
20
52.2654
10
-144.39325300000002
20
52.865400000000008
0
CIRCLE
5
113
100
AcDbEntity
8
0
100
AcDbCircle
10
-212.91943800000001
20
135.96057300000001
30
0
40
0.63500000000000001
210
0
220
0
230
1
0
CIRCLE
5
114
100
AcDbEntity
8
0
100
AcDbCircle
10
-266.88430599999998
20
129.57259999999999
30
0
40
0.63500000000000001
210
0
220
0
230
1
0
CIRCLE
5
115
100
AcDbEntity
8
0
100
AcDbCircle
10
-261.88430599999998
20
127.4726
30
0
40
0.63500000000000001
210
0
220
0
230
1
0
CIRCLE
5
116
100
AcDbEntity
8
0
100
AcDbCircle
10
-272.38430600000004
20
123.67260000000002
30
0
40
0.85089999999999999
210
0
220
0
230
1
0
CIRCLE
5
117
100
AcDbEntity
8
0
100
AcDbCircle
10
-266.88430599999998
20
123.67260000000002
30
0
40
1.7144999999999999
210
0
220
0
230
1
0
CIRCLE
5
118
100
AcDbEntity
8
0
100
AcDbCircle
10
-261.38430599999998
20
123.67260000000002
30
0
40
0.85089999999999999
210
0
220
0
230
1
0
CIRCLE
5
119
100
AcDbEntity
8
0
100
AcDbCircle
10
-272.10430600000001
20
119.4726
30
0
40
0.49530000000000007
210
0
220
0
230
1
0
CIRCLE
5
120
100
AcDbEntity
8
0
100
AcDbCircle
10
-217.31135699999999
20
129.19514200000003
30
0
40
0.85089999999999999
210
0
220
0
230
1
0
CIRCLE
5
121
100
AcDbEntity
8
0
100
AcDbCircle
10
-211.89491400000003
20
130.15020700000002
30
0
40
1.7144999999999999
210
0
220
0
230
1
0
CIRCLE
5
122
100
AcDbEntity
8
0
100
AcDbCircle
10
-216.306288
20
125.10757099999999
30
0
40
0.49530000000000007
210
0
220
0
230
1
0
CIRCLE
5
123
100
AcDbEntity
8
0
100
AcDbCircle
10
-184.77855600000001
20
140.92256900000001
30
0
40
0.63500000000000001
210
0
220
0
230
1
0
CIRCLE
5
124
100
AcDbEntity
8
0
100
AcDbCircle
10
-207.63073800000001
20
134.760717
30
0
40
0.63500000000000001
210
0
220
0
230
1
0
CIRCLE
5
125
100
AcDbEntity
8
0
100
AcDbCircle
10
-206.47847100000004
20
131.10527200000001
30
0
40
0.85089999999999999
210
0
220
0
230
1
0
CIRCLE
5
126
100
AcDbEntity
8
0
100
AcDbCircle
10
-189.17047500000001
20
134.157138
30
0
40
0.85089999999999999
210
0
220
0
230
1
0
CIRCLE
5
127
100
AcDbEntity
8
0
100
AcDbCircle
10
-183.754032
20
135.11220299999999
30
0
40
1.7144999999999999
210
0
220
0
230
1
0
CIRCLE
5
128
100
AcDbEntity
8
0
100
AcDbCircle
10
-179.489856
20
139.722713
30
0
40
0.63500000000000001
210
0
220
0
230
1
0
CIRCLE
5
129
100
AcDbEntity
8
0
100
AcDbCircle
10
-178.33758900000004
20
136.06726800000001
30
0
40
0.85089999999999999
210
0
220
0
230
1
0
CIRCLE
5
130
100
AcDbEntity
8
0
100
AcDbCircle
10
-188.16540599999999
20
130.06956700000001
30
0
40
0.49530000000000007
210
0
220
0
230
1
0
CIRCLE
5
131
100
AcDbEntity
8
0
100
AcDbCircle
10
-190.850853
20
120.507983
30
0
40
0.63500000000000001
210
0
220
0
230
1
0
CIRCLE
5
132
100
AcDbEntity
8
0
100
AcDbCircle
10
-185.56215300000002
20
119.30812700000001
30
0
40
0.63500000000000001
210
0
220
0
230
1
0
CIRCLE
5
133
100
AcDbEntity
8
0
100
AcDbCircle
10
-172.09026499999999
20
123.81598099999999
30
0
40
0.63500000000000001
210
0
220
0
230
1
0
CIRCLE
5
134
100
AcDbEntity
8
0
100
AcDbCircle
10
-166.80156500000004
20
122.616125
30
0
40
0.63500000000000001
210
0
220
0
230
1
0
CIRCLE
5
135
100
AcDbEntity
8
0
100
AcDbCircle
10
-153.525453
20
121.79300000000001
30
0
40
0.5
210
0
220
0
230
1
0
CIRCLE
5
136
100
AcDbEntity
8
0
100
AcDbCircle
10
-150.98545300000001
20
121.79300000000001
30
0
40
0.5
210
0
220
0
230
1
0
CIRCLE
5
137
100
AcDbEntity
8
0
100
AcDbCircle
10
-148.44545299999999
20
121.79300000000001
30
0
40
0.5
210
0
220
0
230
1
0
CIRCLE
5
138
100
AcDbEntity
8
0
100
AcDbCircle
10
-266.88430599999998
20
110.52260000000001
30
0
40
0.63500000000000001
210
0
220
0
230
1
0
CIRCLE
5
139
100
AcDbEntity
8
0
100
AcDbCircle
10
-261.88430599999998
20
108.42260000000002
30
0
40
0.63500000000000001
210
0
220
0
230
1
0
CIRCLE
5
140
100
AcDbEntity
8
0
100
AcDbCircle
10
-247.55461199999999
20
111.36655300000001
30
0
40
0.63500000000000001
210
0
220
0
230
1
0
CIRCLE
5
141
100
AcDbEntity
8
0
100
AcDbCircle
10
-242.39061100000001
20
109.71032300000002
30
0
40
0.63500000000000001
210
0
220
0
230
1
0
CIRCLE
5
142
100
AcDbEntity
8
0
100
AcDbCircle
10
-228.372028
20
113.89198700000001
30
0
40
0.63500000000000001
210
0
220
0
230
1
0
CIRCLE
5
143
100
AcDbEntity
8
0
100
AcDbCircle
10
-227.34750399999999
20
108.08162100000001
30
0
40
1.7144999999999999
210
0
220
0
230
1
0
CIRCLE
5
144
100
AcDbEntity
8
0
100
AcDbCircle
10
-223.08332800000002
20
112.69213100000002
30
0
40
0.63500000000000001
210
0
220
0
230
1
0
CIRCLE
5
145
100
AcDbEntity
8
0
100
AcDbCircle
10
-221.931061
20
109.03668600000002
30
0
40
0.85089999999999999
210
0
220
0
230
1
0
CIRCLE
5
146
100
AcDbEntity
8
0
100
AcDbCircle
10
-217.96721000000002
20
109.73562000000001
30
0
40
1.1000000000000001
210
0
220
0
230
1
0
CIRCLE
5
147
100
AcDbEntity
8
0
100
AcDbCircle
10
-214.00335900000002
20
110.43455400000001
30
0
40
0.85089999999999999
210
0
220
0
230
1
0
CIRCLE
5
148
100
AcDbEntity
8
0
100
AcDbCircle
10
-272.38430600000004
20
104.62260000000001
30
0
40
0.85089999999999999
210
0
220
0
230
1
0
CIRCLE
5
149
100
AcDbEntity
8
0
100
AcDbCircle
10
-266.88430599999998
20
104.62260000000001
30
0
40
1.7144999999999999
210
0
220
0
230
1
0
CIRCLE
5
150
100
AcDbEntity
8
0
100
AcDbCircle
10
-261.38430599999998
20
104.62260000000001
30
0
40
0.85089999999999999
210
0
220
0
230
1
0
CIRCLE
5
151
100
AcDbEntity
8
0
100
AcDbCircle
10
-247.04039300000002
20
105.48900400000001
30
0
40
1.7144999999999999
210
0
220
0
230
1
0
CIRCLE
5
152
100
AcDbEntity
8
0
100
AcDbCircle
10
-256.94422700000007
20
104.64072299999999
30
0
40
1.1000000000000001
210
0
220
0
230
1
0
CIRCLE
5
153
100
AcDbEntity
8
0
100
AcDbCircle
10
-252.51946400000003
20
105.009647
30
0
40
0.85089999999999999
210
0
220
0
230
1
0
CIRCLE
5
154
100
AcDbEntity
8
0
100
AcDbCircle
10
-272.10430600000001
20
100.4226
30
0
40
0.49530000000000007
210
0
220
0
230
1
0
CIRCLE
5
155
100
AcDbEntity
8
0
100
AcDbCircle
10
-251.87447500000002
20
100.850033
30
0
40
0.49530000000000007
210
0
220
0
230
1
0
CIRCLE
5
156
100
AcDbEntity
8
0
100
AcDbCircle
10
-241.56132200000002
20
105.96836100000002
30
0
40
0.85089999999999999
210
0
220
0
230
1
0
CIRCLE
5
157
100
AcDbEntity
8
0
100
AcDbCircle
10
-232.763947
20
107.12655599999999
30
0
40
0.85089999999999999
210
0
220
0
230
1
0
CIRCLE
5
158
100
AcDbEntity
8
0
100
AcDbCircle
10
-231.75887800000001
20
103.03898500000001
30
0
40
0.49530000000000007
210
0
220
0
230
1
0
CIRCLE
5
159
100
AcDbEntity
8
0
100
AcDbCircle
10
-212.99829000000003
20
106.34698299999999
30
0
40
0.49530000000000007
210
0
220
0
230
1
0
CIRCLE
5
160
100
AcDbEntity
8
0
100
AcDbCircle
10
-209.61144000000002
20
117.19998500000001
30
0
40
0.63500000000000001
210
0
220
0
230
1
0
CIRCLE
5
161
100
AcDbEntity
8
0
100
AcDbCircle
10
-204.32274000000004
20
116.00012900000002
30
0
40
0.63500000000000001
210
0
220
0
230
1
0
CIRCLE
5
162
100
AcDbEntity
8
0
100
AcDbCircle
10
-195.242772
20
113.742552
30
0
40
0.85089999999999999
210
0
220
0
230
1
0
CIRCLE
5
163
100
AcDbEntity
8
0
100
AcDbCircle
10
-189.82632899999999
20
114.69761699999999
30
0
40
1.7144999999999999
210
0
220
0
230
1
0
CIRCLE
5
164
100
AcDbEntity
8
0
100
AcDbCircle
10
-184.409886
20
115.652682
30
0
40
0.85089999999999999
210
0
220
0
230
1
0
CIRCLE
5
165
100
AcDbEntity
8
0
100
AcDbCircle
10
-180.44603499999999
20
116.35161600000002
30
0
40
1.1000000000000001
210
0
220
0
230
1
0
CIRCLE
5
166
100
AcDbEntity
8
0
100
AcDbCircle
10
-203.17047299999999
20
112.344684
30
0
40
0.85089999999999999
210
0
220
0
230
1
0
CIRCLE
5
167
100
AcDbEntity
8
0
100
AcDbCircle
10
-208.586916
20
111.389619
30
0
40
1.7144999999999999
210
0
220
0
230
1
0
CIRCLE
5
168
100
AcDbEntity
8
0
100
AcDbCircle
10
-194.23770300000001
20
109.65498100000002
30
0
40
0.49530000000000007
210
0
220
0
230
1
0
CIRCLE
5
169
100
AcDbEntity
8
0
100
AcDbCircle
10
-176.48218400000002
20
117.05055000000002
30
0
40
0.85089999999999999
210
0
220
0
230
1
0
CIRCLE
5
170
100
AcDbEntity
8
0
100
AcDbCircle
10
-171.065741
20
118.00561500000001
30
0
40
1.7144999999999999
210
0
220
0
230
1
0
CIRCLE
5
171
100
AcDbEntity
8
0
100
AcDbCircle
10
-165.64929799999999
20
118.96068
30
0
40
0.85089999999999999
210
0
220
0
230
1
0
CIRCLE
5
172
100
AcDbEntity
8
0
100
AcDbCircle
10
-175.47711500000003
20
112.962979
30
0
40
0.49530000000000007
210
0
220
0
230
1
0
CIRCLE
5
173
100
AcDbEntity
8
0
100
AcDbCircle
10
-206.30344199999999
20
98.439397
30
0
40
0.63500000000000001
210
0
220
0
230
1
0
CIRCLE
5
174
100
AcDbEntity
8
0
100
AcDbCircle
10
-201.01474200000001
20
97.239541000000003
30
0
40
0.63500000000000001
210
0
220
0
230
1
0
CIRCLE
5
175
100
AcDbEntity
8
0
100
AcDbCircle
10
-187.54285500000003
20
101.74739500000001
30
0
40
0.63500000000000001
210
0
220
0
230
1
0
CIRCLE
5
176
100
AcDbEntity
8
0
100
AcDbCircle
10
-182.254155
20
100.54753900000001
30
0
40
0.63500000000000001
210
0
220
0
230
1
0
CIRCLE
5
177
100
AcDbEntity
8
0
100
AcDbCircle
10
-181.101888
20
96.892094000000014
30
0
40
0.85089999999999999
210
0
220
0
230
1
0
CIRCLE
5
178
100
AcDbEntity
8
0
100
AcDbCircle
10
-168.78226699999999
20
105.05539300000001
30
0
40
0.63500000000000001
210
0
220
0
230
1
0
CIRCLE
5
179
100
AcDbEntity
8
0
100
AcDbCircle
10
-149.6652
20
105.4743
30
0
40
0.17499999999999999
210
0
220
0
230
1
0
CIRCLE
5
180
100
AcDbEntity
8
0
100
AcDbCircle
10
-163.49356700000001
20
103.85553700000001
30
0
40
0.63500000000000001
210
0
220
0
230
1
0
CIRCLE
5
181
100
AcDbEntity
8
0
100
AcDbCircle
10
-149.6652
20
104.19930000000001
30
0
40
0.17499999999999999
210
0
220
0
230
1
0
CIRCLE
5
182
100
AcDbEntity
8
0
100
AcDbCircle
10
-149.6652
20
102.92430000000002
30
0
40
0.17499999999999999
210
0
220
0
230
1
0
CIRCLE
5
183
100
AcDbEntity
8
0
100
AcDbCircle
10
-173.17418599999999
20
98.289962000000003
30
0
40
0.85089999999999999
210
0
220
0
230
1
0
CIRCLE
5
184
100
AcDbEntity
8
0
100
AcDbCircle
10
-167.757743
20
99.245026999999993
30
0
40
1.7144999999999999
210
0
220
0
230
1
0
CIRCLE
5
185
100
AcDbEntity
8
0
100
AcDbCircle
10
-162.34129999999999
20
100.20009200000001
30
0
40
0.85089999999999999
210
0
220
0
230
1
0
CIRCLE
5
186
100
AcDbEntity
8
0
100
AcDbCircle
10
-118.49331599999999
20
136.06726800000001
30
0
40
0.85089999999999999
210
0
220
0
230
1
0
CIRCLE
5
187
100
AcDbEntity
8
0
100
AcDbCircle
10
-118.94689200000002
20
131.882454
30
0
40
0.49530000000000007
210
0
220
0
230
1
0
CIRCLE
5
188
100
AcDbEntity
8
0
100
AcDbCircle
10
-112.05234900000001
20
140.92256900000001
30
0
40
0.63500000000000001
210
0
220
0
230
1
0
CIRCLE
5
189
100
AcDbEntity
8
0
100
AcDbCircle
10
-107.492971
20
137.98623200000003
30
0
40
0.63500000000000001
210
0
220
0
230
1
0
CIRCLE
5
190
100
AcDbEntity
8
0
100
AcDbCircle
10
-113.07687300000001
20
135.11220299999999
30
0
40
1.7144999999999999
210
0
220
0
230
1
0
CIRCLE
5
191
100
AcDbEntity
8
0
100
AcDbCircle
10
-107.66043000000002
20
134.157138
30
0
40
0.85089999999999999
210
0
220
0
230
1
0
CIRCLE
5
192
100
AcDbEntity
8
0
100
AcDbCircle
10
-90.352434000000002
20
131.10527200000001
30
0
40
0.85089999999999999
210
0
220
0
230
1
0
CIRCLE
5
193
100
AcDbEntity
8
0
100
AcDbCircle
10
-145.90545299999999
20
121.79300000000001
30
0
40
0.5
210
0
220
0
230
1
0
CIRCLE
5
194
100
AcDbEntity
8
0
100
AcDbCircle
10
-143.365453
20
121.79300000000001
30
0
40
0.5
210
0
220
0
230
1
0
CIRCLE
5
195
100
AcDbEntity
8
0
100
AcDbCircle
10
-124.74064
20
123.81598099999999
30
0
40
0.63500000000000001
210
0
220
0
230
1
0
CIRCLE
5
196
100
AcDbEntity
8
0
100
AcDbCircle
10
-120.181262
20
120.87964400000001
30
0
40
0.63500000000000001
210
0
220
0
230
1
0
CIRCLE
5
197
100
AcDbEntity
8
0
100
AcDbCircle
10
-90.806010000000001
20
126.92045800000001
30
0
40
0.49530000000000007
210
0
220
0
230
1
0
CIRCLE
5
198
100
AcDbEntity
8
0
100
AcDbCircle
10
-105.980053
20
120.507983
30
0
40
0.63500000000000001
210
0
220
0
230
1
0
CIRCLE
5
199
100
AcDbEntity
8
0
100
AcDbCircle
10
-83.911467000000002
20
135.96057300000001
30
0
40
0.63500000000000001
210
0
220
0
230
1
0
CIRCLE
5
200
100
AcDbEntity
8
0
100
AcDbCircle
10
-79.352089000000007
20
133.024236
30
0
40
0.63500000000000001
210
0
220
0
230
1
0
CIRCLE
5
201
100
AcDbEntity
8
0
100
AcDbCircle
10
-84.935991000000001
20
130.15020700000002
30
0
40
1.7144999999999999
210
0
220
0
230
1
0
CIRCLE
5
202
100
AcDbEntity
8
0
100
AcDbCircle
10
-79.519548
20
129.19514200000003
30
0
40
0.85089999999999999
210
0
220
0
230
1
0
CIRCLE
5
203
100
AcDbEntity
8
0
100
AcDbCircle
10
-29.9466
20
129.57259999999999
30
0
40
0.63500000000000001
210
0
220
0
230
1
0
CIRCLE
5
204
100
AcDbEntity
8
0
100
AcDbCircle
10
-24.9466
20
127.4726
30
0
40
0.63500000000000001
210
0
220
0
230
1
0
CIRCLE
5
205
100
AcDbEntity
8
0
100
AcDbCircle
10
-35.446599999999997
20
123.67260000000002
30
0
40
0.85089999999999999
210
0
220
0
230
1
0
CIRCLE
5
206
100
AcDbEntity
8
0
100
AcDbCircle
10
-29.9466
20
123.67260000000002
30
0
40
1.7144999999999999
210
0
220
0
230
1
0
CIRCLE
5
207
100
AcDbEntity
8
0
100
AcDbCircle
10
-24.446600000000004
20
123.67260000000002
30
0
40
0.85089999999999999
210
0
220
0
230
1
0
CIRCLE
5
208
100
AcDbEntity
8
0
100
AcDbCircle
10
-35.166600000000003
20
119.4726
30
0
40
0.49530000000000007
210
0
220
0
230
1
0
CIRCLE
5
209
100
AcDbEntity
8
0
100
AcDbCircle
10
-131.18160700000001
20
118.96068
30
0
40
0.85089999999999999
210
0
220
0
230
1
0
CIRCLE
5
210
100
AcDbEntity
8
0
100
AcDbCircle
10
-125.76516400000001
20
118.00561500000001
30
0
40
1.7144999999999999
210
0
220
0
230
1
0
CIRCLE
5
211
100
AcDbEntity
8
0
100
AcDbCircle
10
-120.34872100000001
20
117.05055000000002
30
0
40
0.85089999999999999
210
0
220
0
230
1
0
CIRCLE
5
212
100
AcDbEntity
8
0
100
AcDbCircle
10
-131.63518300000001
20
114.77586600000001
30
0
40
0.49530000000000007
210
0
220
0
230
1
0
CIRCLE
5
213
100
AcDbEntity
8
0
100
AcDbCircle
10
-116.384871
20
116.35161600000002
30
0
40
1.1000000000000001
210
0
220
0
230
1
0
CIRCLE
5
214
100
AcDbEntity
8
0
100
AcDbCircle
10
-112.42102000000001
20
115.652682
30
0
40
0.85089999999999999
210
0
220
0
230
1
0
CIRCLE
5
215
100
AcDbEntity
8
0
100
AcDbCircle
10
-107.00457700000001
20
114.69761699999999
30
0
40
1.7144999999999999
210
0
220
0
230
1
0
CIRCLE
5
216
100
AcDbEntity
8
0
100
AcDbCircle
10
-101.42067500000002
20
117.57164600000002
30
0
40
0.63500000000000001
210
0
220
0
230
1
0
CIRCLE
5
217
100
AcDbEntity
8
0
100
AcDbCircle
10
-87.219465
20
117.19998500000001
30
0
40
0.63500000000000001
210
0
220
0
230
1
0
CIRCLE
5
218
100
AcDbEntity
8
0
100
AcDbCircle
10
-101.588134
20
113.742552
30
0
40
0.85089999999999999
210
0
220
0
230
1
0
CIRCLE
5
219
100
AcDbEntity
8
0
100
AcDbCircle
10
-112.874596
20
111.46786800000001
30
0
40
0.49530000000000007
210
0
220
0
230
1
0
CIRCLE
5
220
100
AcDbEntity
8
0
100
AcDbCircle
10
-93.660432
20
112.344684
30
0
40
0.85089999999999999
210
0
220
0
230
1
0
CIRCLE
5
221
100
AcDbEntity
8
0
100
AcDbCircle
10
-88.243988999999999
20
111.389619
30
0
40
1.7144999999999999
210
0
220
0
230
1
0
CIRCLE
5
222
100
AcDbEntity
8
0
100
AcDbCircle
10
-94.114008000000013
20
108.15987
30
0
40
0.49530000000000007
210
0
220
0
230
1
0
CIRCLE
5
223
100
AcDbEntity
8
0
100
AcDbCircle
10
-148.39019999999999
20
105.4743
30
0
40
0.17499999999999999
210
0
220
0
230
1
0
CIRCLE
5
224
100
AcDbEntity
8
0
100
AcDbCircle
10
-147.11520000000002
20
105.4743
30
0
40
0.17499999999999999
210
0
220
0
230
1
0
CIRCLE
5
225
100
AcDbEntity
8
0
100
AcDbCircle
10
-148.39019999999999
20
104.19930000000001
30
0
40
0.17499999999999999
210
0
220
0
230
1
0
CIRCLE
5
226
100
AcDbEntity
8
0
100
AcDbCircle
10
-147.11520000000002
20
104.19930000000001
30
0
40
0.17499999999999999
210
0
220
0
230
1
0
CIRCLE
5
227
100
AcDbEntity
8
0
100
AcDbCircle
10
-148.39019999999999
20
102.92430000000002
30
0
40
0.17499999999999999
210
0
220
0
230
1
0
CIRCLE
5
228
100
AcDbEntity
8
0
100
AcDbCircle
10
-147.11520000000002
20
102.92430000000002
30
0
40
0.17499999999999999
210
0
220
0
230
1
0
CIRCLE
5
229
100
AcDbEntity
8
0
100
AcDbCircle
10
-128.04863800000001
20
105.05539300000001
30
0
40
0.63500000000000001
210
0
220
0
230
1
0
CIRCLE
5
230
100
AcDbEntity
8
0
100
AcDbCircle
10
-134.48960500000001
20
100.20009200000001
30
0
40
0.85089999999999999
210
0
220
0
230
1
0
CIRCLE
5
231
100
AcDbEntity
8
0
100
AcDbCircle
10
-123.48926
20
102.11905600000001
30
0
40
0.63500000000000001
210
0
220
0
230
1
0
CIRCLE
5
232
100
AcDbEntity
8
0
100
AcDbCircle
10
-129.073162
20
99.245026999999993
30
0
40
1.7144999999999999
210
0
220
0
230
1
0
CIRCLE
5
233
100
AcDbEntity
8
0
100
AcDbCircle
10
-123.65671900000001
20
98.289962000000003
30
0
40
0.85089999999999999
210
0
220
0
230
1
0
CIRCLE
5
234
100
AcDbEntity
8
0
100
AcDbCircle
10
-109.28805
20
101.74739500000001
30
0
40
0.63500000000000001
210
0
220
0
230
1
0
CIRCLE
5
235
100
AcDbEntity
8
0
100
AcDbCircle
10
-115.72901700000001
20
96.892094000000014
30
0
40
0.85089999999999999
210
0
220
0
230
1
0
CIRCLE
5
236
100
AcDbEntity
8
0
100
AcDbCircle
10
-104.72867200000002
20
98.811058000000003
30
0
40
0.63500000000000001
210
0
220
0
230
1
0
CIRCLE
5
237
100
AcDbEntity
8
0
100
AcDbCircle
10
-90.527463000000012
20
98.439397
30
0
40
0.63500000000000001
210
0
220
0
230
1
0
CIRCLE
5
238
100
AcDbEntity
8
0
100
AcDbCircle
10
-82.660087000000004
20
114.26364800000002
30
0
40
0.63500000000000001
210
0
220
0
230
1
0
CIRCLE
5
239
100
AcDbEntity
8
0
100
AcDbCircle
10
-68.458877000000001
20
113.89198700000001
30
0
40
0.63500000000000001
210
0
220
0
230
1
0
CIRCLE
5
240
100
AcDbEntity
8
0
100
AcDbCircle
10
-82.827546000000012
20
110.43455400000001
30
0
40
0.85089999999999999
210
0
220
0
230
1
0
CIRCLE
5
241
100
AcDbEntity
8
0
100
AcDbCircle
10
-78.863695000000007
20
109.73562000000001
30
0
40
1.1000000000000001
210
0
220
0
230
1
0
CIRCLE
5
242
100
AcDbEntity
8
0
100
AcDbCircle
10
-74.899844000000002
20
109.03668600000002
30
0
40
0.85089999999999999
210
0
220
0
230
1
0
CIRCLE
5
243
100
AcDbEntity
8
0
100
AcDbCircle
10
-63.899499000000006
20
110.95565000000001
30
0
40
0.63500000000000001
210
0
220
0
230
1
0
CIRCLE
5
244
100
AcDbEntity
8
0
100
AcDbCircle
10
-69.483401000000001
20
108.08162100000001
30
0
40
1.7144999999999999
210
0
220
0
230
1
0
CIRCLE
5
245
100
AcDbEntity
8
0
100
AcDbCircle
10
-49.276294000000007
20
111.36655300000001
30
0
40
0.63500000000000001
210
0
220
0
230
1
0
CIRCLE
5
246
100
AcDbEntity
8
0
100
AcDbCircle
10
-44.478347999999997
20
108.838765
30
0
40
0.63500000000000001
210
0
220
0
230
1
0
CIRCLE
5
247
100
AcDbEntity
8
0
100
AcDbCircle
10
-29.9466
20
110.52260000000001
30
0
40
0.63500000000000001
210
0
220
0
230
1
0
CIRCLE
5
248
100
AcDbEntity
8
0
100
AcDbCircle
10
-24.9466
20
108.42260000000002
30
0
40
0.63500000000000001
210
0
220
0
230
1
0
CIRCLE
5
249
100
AcDbEntity
8
0
100
AcDbCircle
10
-75.35342
20
104.851872
30
0
40
0.49530000000000007
210
0
220
0
230
1
0
CIRCLE
5
250
100
AcDbEntity
8
0
100
AcDbCircle
10
-64.066958
20
107.12655599999999
30
0
40
0.85089999999999999
210
0
220
0
230
1
0
CIRCLE
5
251
100
AcDbEntity
8
0
100
AcDbCircle
10
-55.269584000000009
20
105.96836100000002
30
0
40
0.85089999999999999
210
0
220
0
230
1
0
CIRCLE
5
252
100
AcDbEntity
8
0
100
AcDbCircle
10
-55.356703000000003
20
101.75993900000002
30
0
40
0.49530000000000007
210
0
220
0
230
1
0
CIRCLE
5
253
100
AcDbEntity
8
0
100
AcDbCircle
10
-49.790513000000004
20
105.48900400000001
30
0
40
1.7144999999999999
210
0
220
0
230
1
0
CIRCLE
5
254
100
AcDbEntity
8
0
100
AcDbCircle
10
-44.311442
20
105.009647
30
0
40
0.85089999999999999
210
0
220
0
230
1
0
CIRCLE
5
255
100
AcDbEntity
8
0
100
AcDbCircle
10
-39.886679000000001
20
104.64072299999999
30
0
40
1.1000000000000001
210
0
220
0
230
1
0
CIRCLE
5
256
100
AcDbEntity
8
0
100
AcDbCircle
10
-35.446599999999997
20
104.62260000000001
30
0
40
0.85089999999999999
210
0
220
0
230
1
0
CIRCLE
5
257
100
AcDbEntity
8
0
100
AcDbCircle
10
-29.9466
20
104.62260000000001
30
0
40
1.7144999999999999
210
0
220
0
230
1
0
CIRCLE
5
258
100
AcDbEntity
8
0
100
AcDbCircle
10
-24.446600000000004
20
104.62260000000001
30
0
40
0.85089999999999999
210
0
220
0
230
1
0
CIRCLE
5
259
100
AcDbEntity
8
0
100
AcDbCircle
10
-35.166600000000003
20
100.4226
30
0
40
0.49530000000000007
210
0
220
0
230
1
0
CIRCLE
5
260
100
AcDbEntity
8
0
100
AcDbCircle
10
-266.88430599999998
20
91.472600000000014
30
0
40
0.63500000000000001
210
0
220
0
230
1
0
CIRCLE
5
261
100
AcDbEntity
8
0
100
AcDbCircle
10
-245.894295
20
92.389044000000013
30
0
40
0.63500000000000001
210
0
220
0
230
1
0
CIRCLE
5
262
100
AcDbEntity
8
0
100
AcDbCircle
10
-261.88430599999998
20
89.372600000000006
30
0
40
0.63500000000000001
210
0
220
0
230
1
0
CIRCLE
5
263
100
AcDbEntity
8
0
100
AcDbCircle
10
-272.38430600000004
20
85.572599999999994
30
0
40
0.85089999999999999
210
0
220
0
230
1
0
CIRCLE
5
264
100
AcDbEntity
8
0
100
AcDbCircle
10
-266.88430599999998
20
85.572599999999994
30
0
40
1.7144999999999999
210
0
220
0
230
1
0
CIRCLE
5
265
100
AcDbEntity
8
0
100
AcDbCircle
10
-261.38430599999998
20
85.572599999999994
30
0
40
0.85089999999999999
210
0
220
0
230
1
0
CIRCLE
5
266
100
AcDbEntity
8
0
100
AcDbCircle
10
-250.85914700000004
20
86.032138000000003
30
0
40
0.85089999999999999
210
0
220
0
230
1
0
CIRCLE
5
267
100
AcDbEntity
8
0
100
AcDbCircle
10
-245.380076
20
86.511495000000011
30
0
40
1.7144999999999999
210
0
220
0
230
1
0
CIRCLE
5
268
100
AcDbEntity
8
0
100
AcDbCircle
10
-225.06403000000003
20
95.131399999999999
30
0
40
0.63500000000000001
210
0
220
0
230
1
0
CIRCLE
5
269
100
AcDbEntity
8
0
100
AcDbCircle
10
-219.77533
20
93.931544000000002
30
0
40
0.63500000000000001
210
0
220
0
230
1
0
CIRCLE
5
270
100
AcDbEntity
8
0
100
AcDbCircle
10
-240.73029399999999
20
90.732814000000005
30
0
40
0.63500000000000001
210
0
220
0
230
1
0
CIRCLE
5
271
100
AcDbEntity
8
0
100
AcDbCircle
10
-229.45594900000003
20
88.365969000000021
30
0
40
0.85089999999999999
210
0
220
0
230
1
0
CIRCLE
5
272
100
AcDbEntity
8
0
100
AcDbCircle
10
-239.901005
20
86.990852000000004
30
0
40
0.85089999999999999
210
0
220
0
230
1
0
CIRCLE
5
273
100
AcDbEntity
8
0
100
AcDbCircle
10
-224.03950600000002
20
89.321034000000012
30
0
40
1.7144999999999999
210
0
220
0
230
1
0
CIRCLE
5
274
100
AcDbEntity
8
0
100
AcDbCircle
10
-218.623063
20
90.276099000000002
30
0
40
0.85089999999999999
210
0
220
0
230
1
0
CIRCLE
5
275
100
AcDbEntity
8
0
100
AcDbCircle
10
-272.10430600000001
20
81.372600000000006
30
0
40
0.49530000000000007
210
0
220
0
230
1
0
CIRCLE
5
276
100
AcDbEntity
8
0
100
AcDbCircle
10
-250.214158
20
81.872523999999999
30
0
40
0.49530000000000007
210
0
220
0
230
1
0
CIRCLE
5
277
100
AcDbEntity
8
0
100
AcDbCircle
10
-228.45088000000004
20
84.278397999999996
30
0
40
0.49530000000000007
210
0
220
0
230
1
0
CIRCLE
5
278
100
AcDbEntity
8
0
100
AcDbCircle
10
-221.756032
20
76.370812000000001
30
0
40
0.63500000000000001
210
0
220
0
230
1
0
CIRCLE
5
279
100
AcDbEntity
8
0
100
AcDbCircle
10
-216.467332
20
75.170956000000018
30
0
40
0.63500000000000001
210
0
220
0
230
1
0
CIRCLE
5
280
100
AcDbEntity
8
0
100
AcDbCircle
10
-205.27891800000003
20
92.629031000000012
30
0
40
1.7144999999999999
210
0
220
0
230
1
0
CIRCLE
5
281
100
AcDbEntity
8
0
100
AcDbCircle
10
-210.69536099999999
20
91.673966000000007
30
0
40
0.85089999999999999
210
0
220
0
230
1
0
CIRCLE
5
282
100
AcDbEntity
8
0
100
AcDbCircle
10
-199.86247500000002
20
93.584096000000002
30
0
40
0.85089999999999999
210
0
220
0
230
1
0
CIRCLE
5
283
100
AcDbEntity
8
0
100
AcDbCircle
10
-191.93477400000003
20
94.981964000000005
30
0
40
0.85089999999999999
210
0
220
0
230
1
0
CIRCLE
5
284
100
AcDbEntity
8
0
100
AcDbCircle
10
-186.51833100000002
20
95.937028999999995
30
0
40
1.7144999999999999
210
0
220
0
230
1
0
CIRCLE
5
285
100
AcDbEntity
8
0
100
AcDbCircle
10
-209.690292
20
87.586394999999996
30
0
40
0.49530000000000007
210
0
220
0
230
1
0
CIRCLE
5
286
100
AcDbEntity
8
0
100
AcDbCircle
10
-190.92970500000004
20
90.894393000000008
30
0
40
0.49530000000000007
210
0
220
0
230
1
0
CIRCLE
5
287
100
AcDbEntity
8
0
100
AcDbCircle
10
-172.169117
20
94.20239100000002
30
0
40
0.49530000000000007
210
0
220
0
230
1
0
CIRCLE
5
288
100
AcDbEntity
8
0
100
AcDbCircle
10
-165.47426900000002
20
86.294804999999997
30
0
40
0.63500000000000001
210
0
220
0
230
1
0
CIRCLE
5
289
100
AcDbEntity
8
0
100
AcDbCircle
10
-184.23485700000001
20
82.986807999999996
30
0
40
0.63500000000000001
210
0
220
0
230
1
0
CIRCLE
5
290
100
AcDbEntity
8
0
100
AcDbCircle
10
-202.99544499999999
20
79.678809999999999
30
0
40
0.63500000000000001
210
0
220
0
230
1
0
CIRCLE
5
291
100
AcDbEntity
8
0
100
AcDbCircle
10
-197.70674500000001
20
78.478954000000002
30
0
40
0.63500000000000001
210
0
220
0
230
1
0
CIRCLE
5
292
100
AcDbEntity
8
0
100
AcDbCircle
10
-196.55447800000002
20
74.823509000000001
30
0
40
0.85089999999999999
210
0
220
0
230
1
0
CIRCLE
5
293
100
AcDbEntity
8
0
100
AcDbCircle
10
-183.21033299999999
20
77.176441999999994
30
0
40
1.7144999999999999
210
0
220
0
230
1
0
CIRCLE
5
294
100
AcDbEntity
8
0
100
AcDbCircle
10
-188.62677600000001
20
76.221377000000004
30
0
40
0.85089999999999999
210
0
220
0
230
1
0
CIRCLE
5
295
100
AcDbEntity
8
0
100
AcDbCircle
10
-178.946157
20
81.786951999999999
30
0
40
0.63500000000000001
210
0
220
0
230
1
0
CIRCLE
5
296
100
AcDbEntity
8
0
100
AcDbCircle
10
-164.44974500000001
20
80.484439000000009
30
0
40
1.7144999999999999
210
0
220
0
230
1
0
CIRCLE
5
297
100
AcDbEntity
8
0
100
AcDbCircle
10
-160.18556899999999
20
85.094949
30
0
40
0.63500000000000001
210
0
220
0
230
1
0
CIRCLE
5
298
100
AcDbEntity
8
0
100
AcDbCircle
10
-159.03330199999999
20
81.439503999999999
30
0
40
0.85089999999999999
210
0
220
0
230
1
0
CIRCLE
5
299
100
AcDbEntity
8
0
100
AcDbCircle
10
-153.18700000000001
20
81.584800000000001
30
0
40
0.5
210
0
220
0
230
1
0
CIRCLE
5
300
100
AcDbEntity
8
0
100
AcDbCircle
10
-173.83003900000003
20
78.830440999999993
30
0
40
1.1000000000000001
210
0
220
0
230
1
0
CIRCLE
5
301
100
AcDbEntity
8
0
100
AcDbCircle
10
-177.79389000000003
20
78.131506999999999
30
0
40
0.85089999999999999
210
0
220
0
230
1
0
CIRCLE
5
302
100
AcDbEntity
8
0
100
AcDbCircle
10
-169.86618799999999
20
79.529374000000004
30
0
40
0.85089999999999999
210
0
220
0
230
1
0
CIRCLE
5
303
100
AcDbEntity
8
0
100
AcDbCircle
10
-168.861119
20
75.441802999999993
30
0
40
0.49530000000000007
210
0
220
0
230
1
0
CIRCLE
5
304
100
AcDbEntity
8
0
100
AcDbCircle
10
-153.18700000000001
20
79.044799999999995
30
0
40
0.5
210
0
220
0
230
1
0
CIRCLE
5
305
100
AcDbEntity
8
0
100
AcDbCircle
10
-266.88430599999998
20
72.422600000000003
30
0
40
0.63500000000000001
210
0
220
0
230
1
0
CIRCLE
5
306
100
AcDbEntity
8
0
100
AcDbCircle
10
-261.88430599999998
20
70.322599999999994
30
0
40
0.63500000000000001
210
0
220
0
230
1
0
CIRCLE
5
307
100
AcDbEntity
8
0
100
AcDbCircle
10
-244.23397800000004
20
73.411535000000015
30
0
40
0.63500000000000001
210
0
220
0
230
1
0
CIRCLE
5
308
100
AcDbEntity
8
0
100
AcDbCircle
10
-272.38430600000004
20
66.522599999999997
30
0
40
0.85089999999999999
210
0
220
0
230
1
0
CIRCLE
5
309
100
AcDbEntity
8
0
100
AcDbCircle
10
-266.88430599999998
20
66.522599999999997
30
0
40
1.7144999999999999
210
0
220
0
230
1
0
CIRCLE
5
310
100
AcDbEntity
8
0
100
AcDbCircle
10
-261.38430599999998
20
66.522599999999997
30
0
40
0.85089999999999999
210
0
220
0
230
1
0
CIRCLE
5
311
100
AcDbEntity
8
0
100
AcDbCircle
10
-255.28390999999999
20
66.613213999999999
30
0
40
1.1000000000000001
210
0
220
0
230
1
0
CIRCLE
5
312
100
AcDbEntity
8
0
100
AcDbCircle
10
-243.71975900000001
20
67.533985999999999
30
0
40
1.7144999999999999
210
0
220
0
230
1
0
CIRCLE
5
313
100
AcDbEntity
8
0
100
AcDbCircle
10
-249.19882999999999
20
67.054629000000006
30
0
40
0.85089999999999999
210
0
220
0
230
1
0
CIRCLE
5
314
100
AcDbEntity
8
0
100
AcDbCircle
10
-239.06997700000002
20
71.755305000000007
30
0
40
0.63500000000000001
210
0
220
0
230
1
0
CIRCLE
5
315
100
AcDbEntity
8
0
100
AcDbCircle
10
-211.351215
20
72.214445000000012
30
0
40
1.1000000000000001
210
0
220
0
230
1
0
CIRCLE
5
316
100
AcDbEntity
8
0
100
AcDbCircle
10
-220.73150800000002
20
70.560445999999999
30
0
40
1.7144999999999999
210
0
220
0
230
1
0
CIRCLE
5
317
100
AcDbEntity
8
0
100
AcDbCircle
10
-226.14795100000003
20
69.605380999999994
30
0
40
0.85089999999999999
210
0
220
0
230
1
0
CIRCLE
5
318
100
AcDbEntity
8
0
100
AcDbCircle
10
-215.31506500000003
20
71.515511000000004
30
0
40
0.85089999999999999
210
0
220
0
230
1
0
CIRCLE
5
319
100
AcDbEntity
8
0
100
AcDbCircle
10
-238.24068800000003
20
68.013343000000006
30
0
40
0.85089999999999999
210
0
220
0
230
1
0
CIRCLE
5
320
100
AcDbEntity
8
0
100
AcDbCircle
10
-225.14288199999999
20
65.517809999999997
30
0
40
0.49530000000000007
210
0
220
0
230
1
0
CIRCLE
5
321
100
AcDbEntity
8
0
100
AcDbCircle
10
-272.10430600000001
20
62.322600000000001
30
0
40
0.49530000000000007
210
0
220
0
230
1
0
CIRCLE
5
322
100
AcDbEntity
8
0
100
AcDbCircle
10
-248.55384100000003
20
62.895015000000001
30
0
40
0.49530000000000007
210
0
220
0
230
1
0
CIRCLE
5
323
100
AcDbEntity
8
0
100
AcDbCircle
10
-207.38736399999999
20
72.913379000000006
30
0
40
0.85089999999999999
210
0
220
0
230
1
0
CIRCLE
5
324
100
AcDbEntity
8
0
100
AcDbCircle
10
-201.97092100000003
20
73.868443999999997
30
0
40
1.7144999999999999
210
0
220
0
230
1
0
CIRCLE
5
325
100
AcDbEntity
8
0
100
AcDbCircle
10
-206.382295
20
68.825807999999995
30
0
40
0.49530000000000007
210
0
220
0
230
1
0
CIRCLE
5
326
100
AcDbEntity
8
0
100
AcDbCircle
10
-187.62170699999999
20
72.133806000000007
30
0
40
0.49530000000000007
210
0
220
0
230
1
0
CIRCLE
5
327
100
AcDbEntity
8
0
100
AcDbCircle
10
-151.30325300000004
20
56.215400000000002
30
0
40
0.32500000000000001
210
0
220
0
230
1
0
CIRCLE
5
328
100
AcDbEntity
8
0
100
AcDbCircle
10
-134.94318100000001
20
96.015277999999995
30
0
40
0.49530000000000007
210
0
220
0
230
1
0
CIRCLE
5
329
100
AcDbEntity
8
0
100
AcDbCircle
10
-131.35663600000001
20
86.294804999999997
30
0
40
0.63500000000000001
210
0
220
0
230
1
0
CIRCLE
5
330
100
AcDbEntity
8
0
100
AcDbCircle
10
-110.31257400000001
20
95.937028999999995
30
0
40
1.7144999999999999
210
0
220
0
230
1
0
CIRCLE
5
331
100
AcDbEntity
8
0
100
AcDbCircle
10
-104.896131
20
94.981964000000005
30
0
40
0.85089999999999999
210
0
220
0
230
1
0
CIRCLE
5
332
100
AcDbEntity
8
0
100
AcDbCircle
10
-116.182593
20
92.707279999999997
30
0
40
0.49530000000000007
210
0
220
0
230
1
0
CIRCLE
5
333
100
AcDbEntity
8
0
100
AcDbCircle
10
-96.968430000000012
20
93.584096000000002
30
0
40
0.85089999999999999
210
0
220
0
230
1
0
CIRCLE
5
334
100
AcDbEntity
8
0
100
AcDbCircle
10
-91.551986999999997
20
92.629031000000012
30
0
40
1.7144999999999999
210
0
220
0
230
1
0
CIRCLE
5
335
100
AcDbEntity
8
0
100
AcDbCircle
10
-86.135543999999996
20
91.673966000000007
30
0
40
0.85089999999999999
210
0
220
0
230
1
0
CIRCLE
5
336
100
AcDbEntity
8
0
100
AcDbCircle
10
-97.42200600000001
20
89.399281999999999
30
0
40
0.49530000000000007
210
0
220
0
230
1
0
CIRCLE
5
337
100
AcDbEntity
8
0
100
AcDbCircle
10
-137.79760300000001
20
81.439503999999999
30
0
40
0.85089999999999999
210
0
220
0
230
1
0
CIRCLE
5
338
100
AcDbEntity
8
0
100
AcDbCircle
10
-126.797258
20
83.358468000000002
30
0
40
0.63500000000000001
210
0
220
0
230
1
0
CIRCLE
5
339
100
AcDbEntity
8
0
100
AcDbCircle
10
-132.38115999999999
20
80.484439000000009
30
0
40
1.7144999999999999
210
0
220
0
230
1
0
CIRCLE
5
340
100
AcDbEntity
8
0
100
AcDbCircle
10
-138.25117900000004
20
77.254690000000011
30
0
40
0.49530000000000007
210
0
220
0
230
1
0
CIRCLE
5
341
100
AcDbEntity
8
0
100
AcDbCircle
10
-126.96471700000001
20
79.529374000000004
30
0
40
0.85089999999999999
210
0
220
0
230
1
0
CIRCLE
5
342
100
AcDbEntity
8
0
100
AcDbCircle
10
-123.000866
20
78.830440999999993
30
0
40
1.1000000000000001
210
0
220
0
230
1
0
CIRCLE
5
343
100
AcDbEntity
8
0
100
AcDbCircle
10
-119.037015
20
78.131506999999999
30
0
40
0.85089999999999999
210
0
220
0
230
1
0
CIRCLE
5
344
100
AcDbEntity
8
0
100
AcDbCircle
10
-112.596048
20
82.986807999999996
30
0
40
0.63500000000000001
210
0
220
0
230
1
0
CIRCLE
5
345
100
AcDbEntity
8
0
100
AcDbCircle
10
-108.03667000000002
20
80.050471000000002
30
0
40
0.63500000000000001
210
0
220
0
230
1
0
CIRCLE
5
346
100
AcDbEntity
8
0
100
AcDbCircle
10
-113.62057200000001
20
77.176441999999994
30
0
40
1.7144999999999999
210
0
220
0
230
1
0
CIRCLE
5
347
100
AcDbEntity
8
0
100
AcDbCircle
10
-108.20412900000001
20
76.221377000000004
30
0
40
0.85089999999999999
210
0
220
0
230
1
0
CIRCLE
5
348
100
AcDbEntity
8
0
100
AcDbCircle
10
-93.835460000000012
20
79.678809999999999
30
0
40
0.63500000000000001
210
0
220
0
230
1
0
CIRCLE
5
349
100
AcDbEntity
8
0
100
AcDbCircle
10
-100.27642700000001
20
74.823509000000001
30
0
40
0.85089999999999999
210
0
220
0
230
1
0
CIRCLE
5
350
100
AcDbEntity
8
0
100
AcDbCircle
10
-89.276082000000002
20
76.742473000000018
30
0
40
0.63500000000000001
210
0
220
0
230
1
0
CIRCLE
5
351
100
AcDbEntity
8
0
100
AcDbCircle
10
-85.968085000000002
20
95.503060000000005
30
0
40
0.63500000000000001
210
0
220
0
230
1
0
CIRCLE
5
352
100
AcDbEntity
8
0
100
AcDbCircle
10
-71.766874999999999
20
95.131399999999999
30
0
40
0.63500000000000001
210
0
220
0
230
1
0
CIRCLE
5
353
100
AcDbEntity
8
0
100
AcDbCircle
10
-67.207497000000004
20
92.195063000000005
30
0
40
0.63500000000000001
210
0
220
0
230
1
0
CIRCLE
5
354
100
AcDbEntity
8
0
100
AcDbCircle
10
-78.207841999999999
20
90.276099000000002
30
0
40
0.85089999999999999
210
0
220
0
230
1
0
CIRCLE
5
355
100
AcDbEntity
8
0
100
AcDbCircle
10
-72.791399000000013
20
89.321034000000012
30
0
40
1.7144999999999999
210
0
220
0
230
1
0
CIRCLE
5
356
100
AcDbEntity
8
0
100
AcDbCircle
10
-78.661417999999998
20
86.091284999999999
30
0
40
0.49530000000000007
210
0
220
0
230
1
0
CIRCLE
5
357
100
AcDbEntity
8
0
100
AcDbCircle
10
-67.374955999999997
20
88.365969000000021
30
0
40
0.85089999999999999
210
0
220
0
230
1
0
CIRCLE
5
358
100
AcDbEntity
8
0
100
AcDbCircle
10
-56.929900000000011
20
86.990852000000004
30
0
40
0.85089999999999999
210
0
220
0
230
1
0
CIRCLE
5
359
100
AcDbEntity
8
0
100
AcDbCircle
10
-50.936610000000009
20
92.389044000000013
30
0
40
0.63500000000000001
210
0
220
0
230
1
0
CIRCLE
5
360
100
AcDbEntity
8
0
100
AcDbCircle
10
-29.9466
20
91.472600000000014
30
0
40
0.63500000000000001
210
0
220
0
230
1
0
CIRCLE
5
361
100
AcDbEntity
8
0
100
AcDbCircle
10
-46.138663999999999
20
89.861255999999997
30
0
40
0.63500000000000001
210
0
220
0
230
1
0
CIRCLE
5
362
100
AcDbEntity
8
0
100
AcDbCircle
10
-51.450828999999999
20
86.511495000000011
30
0
40
1.7144999999999999
210
0
220
0
230
1
0
CIRCLE
5
363
100
AcDbEntity
8
0
100
AcDbCircle
10
-45.971758000000008
20
86.032138000000003
30
0
40
0.85089999999999999
210
0
220
0
230
1
0
CIRCLE
5
364
100
AcDbEntity
8
0
100
AcDbCircle
10
-24.9466
20
89.372600000000006
30
0
40
0.63500000000000001
210
0
220
0
230
1
0
CIRCLE
5
365
100
AcDbEntity
8
0
100
AcDbCircle
10
-35.446599999999997
20
85.572599999999994
30
0
40
0.85089999999999999
210
0
220
0
230
1
0
CIRCLE
5
366
100
AcDbEntity
8
0
100
AcDbCircle
10
-29.9466
20
85.572599999999994
30
0
40
1.7144999999999999
210
0
220
0
230
1
0
CIRCLE
5
367
100
AcDbEntity
8
0
100
AcDbCircle
10
-24.446600000000004
20
85.572599999999994
30
0
40
0.85089999999999999
210
0
220
0
230
1
0
CIRCLE
5
368
100
AcDbEntity
8
0
100
AcDbCircle
10
-57.017018999999998
20
82.782430000000019
30
0
40
0.49530000000000007
210
0
220
0
230
1
0
CIRCLE
5
369
100
AcDbEntity
8
0
100
AcDbCircle
10
-75.074872999999997
20
76.370812000000001
30
0
40
0.63500000000000001
210
0
220
0
230
1
0
CIRCLE
5
370
100
AcDbEntity
8
0
100
AcDbCircle
10
-35.166600000000003
20
81.372600000000006
30
0
40
0.49530000000000007
210
0
220
0
230
1
0
CIRCLE
5
371
100
AcDbEntity
8
0
100
AcDbCircle
10
-119.49059099999999
20
73.94669300000001
30
0
40
0.49530000000000007
210
0
220
0
230
1
0
CIRCLE
5
372
100
AcDbEntity
8
0
100
AcDbCircle
10
-94.859983999999997
20
73.868443999999997
30
0
40
1.7144999999999999
210
0
220
0
230
1
0
CIRCLE
5
373
100
AcDbEntity
8
0
100
AcDbCircle
10
-89.443540999999996
20
72.913379000000006
30
0
40
0.85089999999999999
210
0
220
0
230
1
0
CIRCLE
5
374
100
AcDbEntity
8
0
100
AcDbCircle
10
-100.73000300000001
20
70.638694999999998
30
0
40
0.49530000000000007
210
0
220
0
230
1
0
CIRCLE
5
375
100
AcDbEntity
8
0
100
AcDbCircle
10
-145.52325300000001
20
56.215400000000002
30
0
40
0.32500000000000001
210
0
220
0
230
1
0
CIRCLE
5
376
100
AcDbEntity
8
0
100
AcDbCircle
10
-85.479691000000017
20
72.214445000000012
30
0
40
1.1000000000000001
210
0
220
0
230
1
0
CIRCLE
5
377
100
AcDbEntity
8
0
100
AcDbCircle
10
-70.515495000000001
20
73.434475000000006
30
0
40
0.63500000000000001
210
0
220
0
230
1
0
CIRCLE
5
378
100
AcDbEntity
8
0
100
AcDbCircle
10
-81.515839999999997
20
71.515511000000004
30
0
40
0.85089999999999999
210
0
220
0
230
1
0
CIRCLE
5
379
100
AcDbEntity
8
0
100
AcDbCircle
10
-76.099396999999996
20
70.560445999999999
30
0
40
1.7144999999999999
210
0
220
0
230
1
0
CIRCLE
5
380
100
AcDbEntity
8
0
100
AcDbCircle
10
-70.682953999999995
20
69.605380999999994
30
0
40
0.85089999999999999
210
0
220
0
230
1
0
CIRCLE
5
381
100
AcDbEntity
8
0
100
AcDbCircle
10
-81.96941600000001
20
67.330697000000001
30
0
40
0.49530000000000007
210
0
220
0
230
1
0
CIRCLE
5
382
100
AcDbEntity
8
0
100
AcDbCircle
10
-58.590217000000003
20
68.013343000000006
30
0
40
0.85089999999999999
210
0
220
0
230
1
0
CIRCLE
5
383
100
AcDbEntity
8
0
100
AcDbCircle
10
-58.677336000000004
20
63.804921000000007
30
0
40
0.49530000000000007
210
0
220
0
230
1
0
CIRCLE
5
384
100
AcDbEntity
8
0
100
AcDbCircle
10
-52.596927000000008
20
73.411535000000015
30
0
40
0.63500000000000001
210
0
220
0
230
1
0
CIRCLE
5
385
100
AcDbEntity
8
0
100
AcDbCircle
10
-47.798980999999998
20
70.883747
30
0
40
0.63500000000000001
210
0
220
0
230
1
0
CIRCLE
5
386
100
AcDbEntity
8
0
100
AcDbCircle
10
-29.9466
20
72.422600000000003
30
0
40
0.63500000000000001
210
0
220
0
230
1
0
CIRCLE
5
387
100
AcDbEntity
8
0
100
AcDbCircle
10
-24.9466
20
70.322599999999994
30
0
40
0.63500000000000001
210
0
220
0
230
1
0
CIRCLE
5
388
100
AcDbEntity
8
0
100
AcDbCircle
10
-53.111145999999998
20
67.533985999999999
30
0
40
1.7144999999999999
210
0
220
0
230
1
0
CIRCLE
5
389
100
AcDbEntity
8
0
100
AcDbCircle
10
-47.632075
20
67.054629000000006
30
0
40
0.85089999999999999
210
0
220
0
230
1
0
CIRCLE
5
390
100
AcDbEntity
8
0
100
AcDbCircle
10
-41.546996
20
66.613213999999999
30
0
40
1.1000000000000001
210
0
220
0
230
1
0
CIRCLE
5
391
100
AcDbEntity
8
0
100
AcDbCircle
10
-35.446599999999997
20
66.522599999999997
30
0
40
0.85089999999999999
210
0
220
0
230
1
0
CIRCLE
5
392
100
AcDbEntity
8
0
100
AcDbCircle
10
-29.9466
20
66.522599999999997
30
0
40
1.7144999999999999
210
0
220
0
230
1
0
CIRCLE
5
393
100
AcDbEntity
8
0
100
AcDbCircle
10
-24.446600000000004
20
66.522599999999997
30
0
40
0.85089999999999999
210
0
220
0
230
1
0
CIRCLE
5
394
100
AcDbEntity
8
0
100
AcDbCircle
10
-35.166600000000003
20
62.322600000000001
30
0
40
0.49530000000000007
210
0
220
0
230
1
0
ENDSEC
0
SECTION
2
OBJECTS
0
DICTIONARY
5
C
100
AcDbDictionary
3
ACAD_GROUP
350
D
3
ACAD_MLINESTYLE
350
17
0
DICTIONARY
5
D
100
AcDbDictionary
0
DICTIONARY
5
1A
330
C
100
AcDbDictionary
0
DICTIONARY
5
17
100
AcDbDictionary
0
ENDSEC
0
EOF
